<svg width="24" height="24" viewBox="0 0 24 24" fill="none" xmlns="http://www.w3.org/2000/svg">
<path d="M12 2C10.3431 2 9 3.34315 9 5V7H7C5.34315 7 4 8.34315 4 10V19C4 20.6569 5.34315 22 7 22H17C18.6569 22 20 20.6569 20 19V10C20 8.34315 18.6569 7 17 7H15V5C15 3.34315 13.6569 2 12 2ZM11 5C11 4.44772 11.4477 4 12 4C12.5523 4 13 4.44772 13 5V7H11V5ZM7 9H17C17.5523 9 18 9.44772 18 10V19C18 19.5523 17.5523 20 17 20H7C6.44772 20 6 19.5523 6 19V10C6 9.44772 6.44772 9 7 9Z" fill="#64748B"/>
<path d="M10 13C10 12.4477 10.4477 12 11 12C11.5523 12 12 12.4477 12 13C12 13.5523 11.5523 14 11 14C10.4477 14 10 13.5523 10 13Z" fill="#64748B"/>
<path d="M13 15C13 14.4477 13.4477 14 14 14C14.5523 14 15 14.4477 15 15C15 15.5523 14.5523 16 14 16C13.4477 16 13 15.5523 13 15Z" fill="#64748B"/>
</svg>
